<svg xmlns="http://www.w3.org/2000/svg" viewBox="0 0 64 64" role="img" aria-label="شات درر العرب">
  <defs>
    <linearGradient id="g" x1="0" y1="0" x2="1" y2="1">
      <stop offset="0" stop-color="#2dd4bf"/>
      <stop offset="1" stop-color="#0d9488"/>
    </linearGradient>
  </defs>
  <rect width="64" height="64" rx="16" fill="url(#g)"/>
  <circle cx="50" cy="14" r="5" fill="#ffffff" opacity="0.9"/>
  <path d="M32 14c-10.5 0-19 7.2-19 16 0 5 2.6 9.4 6.7 12.3l-1.6 6 6.4-2.8c2.4.7 5 1.1 7.5 1.1 10.5 0 19-7.2 19-16s-8.5-16-19-16z" fill="#0b1022"/>
  <g fill="#ccfbf1">
    <ellipse cx="27" cy="31" rx="2.6" ry="3.4"/>
    <ellipse cx="37" cy="31" rx="2.6" ry="3.4"/>
  </g>
  <g fill="none" stroke="#0b1022" stroke-width="2" stroke-linecap="round">
    <path d="M24 38c2.4 2 4.9 2.6 8 2.6s5.6-.6 8-2.6"/>
    <path d="M24 36.5c1.3 1.3 3 2 5 2"/>
  </g>
</svg>